<svg xmlns="http://www.w3.org/2000/svg" xmlns:xlink="http://www.w3.org/1999/xlink" viewBox="0 0 69.06 75.79"><defs><style>.cls-1{fill:#ee6f27;}.cls-2{fill:url(#linear-gradient);}.cls-3{fill:url(#linear-gradient-2);}.cls-4{fill:#595a5c;}</style><linearGradient id="linear-gradient" x1="13.42" y1="20.77" x2="55.16" y2="20.77" gradientUnits="userSpaceOnUse"><stop offset="0" stop-color="#ee6f27"/><stop offset="0.27" stop-color="#ea6d26"/><stop offset="0.56" stop-color="#dd6723"/><stop offset="0.84" stop-color="#c95e1f"/><stop offset="1" stop-color="#ba571c"/></linearGradient><linearGradient id="linear-gradient-2" x1="25.37" y1="34.67" x2="55.64" y2="34.67" xlink:href="#linear-gradient"/></defs><title>Dataflow logo</title><g id="Layer_2" data-name="Layer 2"><g id="Layer_1-2" data-name="Layer 1"><path class="cls-1" d="M13.42,38.72a208.54,208.54,0,0,1,12,18.44h-12Z"/><path class="cls-2" d="M24.92,41.55l-11.5-7V0H40.64A15,15,0,0,1,55.16,11.23C52.67,13.26,40.91,23.2,24.92,41.55Z"/><path class="cls-3" d="M55.64,15V42.16a15,15,0,0,1-15,15H25.37c5.1-17.62,27.31-42.06,30-45A15.41,15.41,0,0,1,55.64,15Z"/><path class="cls-4" d="M0,75.66V66.42H2.78A4.65,4.65,0,0,1,5.05,67a3.71,3.71,0,0,1,1.53,1.51,4.63,4.63,0,0,1,.54,2.26v.59a4.67,4.67,0,0,1-.54,2.29,3.6,3.6,0,0,1-1.53,1.51,4.82,4.82,0,0,1-2.32.54Zm1.3-8.24v7.25H2.67A3.08,3.08,0,0,0,5,73.79a3.47,3.47,0,0,0,.84-2.5v-.54a3.57,3.57,0,0,0-.79-2.45,2.91,2.91,0,0,0-2.24-.88Z"/><path class="cls-4" d="M14.52,73.25H10.4l-.93,2.41H8.13l3.76-9.24H13l3.76,9.24H15.46Zm-3.73-1h3.35l-1.68-4.32Z"/><path class="cls-4" d="M24.05,67.42H20.89v8.24H19.6V67.42H16.44v-1h7.61Z"/><path class="cls-4" d="M30.42,73.25H26.29l-.93,2.41H24l3.76-9.24h1.13l3.77,9.24H31.36Zm-3.74-1H30l-1.68-4.32Z"/><path class="cls-1" d="M39.45,71.58H35.31v4.08H34V66.42h6.1v1H35.31v3.17h4.14Z"/><path class="cls-1" d="M43,74.67h4.66v1h-6V66.42H43Z"/><path class="cls-1" d="M56.76,71.34a4.83,4.83,0,0,1-.55,2.37,3.68,3.68,0,0,1-1.55,1.55,5,5,0,0,1-2.35.53A4.87,4.87,0,0,1,50,75.25a3.73,3.73,0,0,1-1.57-1.53,4.72,4.72,0,0,1-.58-2.3v-.66a4.87,4.87,0,0,1,.56-2.36A3.81,3.81,0,0,1,50,66.84a5.3,5.3,0,0,1,4.68,0,3.73,3.73,0,0,1,1.56,1.56,4.88,4.88,0,0,1,.55,2.37Zm-1.45-.6a3.65,3.65,0,0,0-.8-2.52,3.18,3.18,0,0,0-4.39,0,3.57,3.57,0,0,0-.82,2.44v.68a3.71,3.71,0,0,0,.8,2.51,3.19,3.19,0,0,0,4.41.05,3.73,3.73,0,0,0,.8-2.47Z"/><path class="cls-1" d="M60.33,72.75,60.52,74l.28-1.1,2-6.45h1.09l1.91,6.45L66,74l.21-1.25,1.52-6.32h1.31l-2.39,9.24H65.49l-2-6.73-.16-.71-.15.71L61,75.66H59.86l-2.38-9.24h1.3Z"/></g></g></svg>