<svg xmlns="http://www.w3.org/2000/svg" xmlns:xlink="http://www.w3.org/1999/xlink" width="98.45" height="17" viewBox="0 0 98.45 17">
  <defs>
    <linearGradient id="linear-gradient" y1="0.5" x2="1" y2="0.5" gradientUnits="objectBoundingBox">
      <stop offset="0" stop-color="#ee6f27"/>
      <stop offset="0.27" stop-color="#ea6d26"/>
      <stop offset="0.56" stop-color="#dd6723"/>
      <stop offset="0.84" stop-color="#c95e1f"/>
      <stop offset="1" stop-color="#ba571c"/>
    </linearGradient>
    <linearGradient id="linear-gradient-2" x1="0" y1="0.5" x2="1" y2="0.5" xlink:href="#linear-gradient"/>
  </defs>
  <g id="Group_3" data-name="Group 3" transform="translate(-688 -255)">
    <g id="Layer_2" data-name="Layer 2" transform="translate(688 255)">
      <g id="Layer_1" data-name="Layer 1" transform="translate(0)">
        <path id="Path_32" data-name="Path 32" d="M13.42,38.72A62.021,62.021,0,0,1,16.989,44.2H13.42Z" transform="translate(-13.42 -27.204)" fill="#ee6f27"/>
        <path id="Path_33" data-name="Path 33" d="M16.84,12.357l-3.42-2.082V0h8.1a4.461,4.461,0,0,1,4.319,3.34A79.909,79.909,0,0,0,16.84,12.357Z" transform="translate(-13.42)" fill="url(#linear-gradient)"/>
        <path id="Path_34" data-name="Path 34" d="M34.373,13v8.078a4.461,4.461,0,0,1-4.461,4.461H25.37c1.517-5.24,8.122-12.509,8.922-13.383A4.582,4.582,0,0,1,34.373,13Z" transform="translate(-21.816 -8.543)" fill="url(#linear-gradient-2)"/>
        <g id="Group_4" data-name="Group 4" transform="translate(18.051 2.839)">
          <path id="Path_35" data-name="Path 35" d="M0,77.18V66.42H3.237a5.414,5.414,0,0,1,2.643.675,4.321,4.321,0,0,1,1.782,1.758,5.392,5.392,0,0,1,.629,2.632v.687a5.438,5.438,0,0,1-.629,2.667A4.192,4.192,0,0,1,5.881,76.6a5.613,5.613,0,0,1-2.7.629Zm1.514-9.6v8.443h1.6A3.587,3.587,0,0,0,5.823,75,4.041,4.041,0,0,0,6.8,72.091v-.629a4.158,4.158,0,0,0-.92-2.853,3.389,3.389,0,0,0-2.609-1.025Z" transform="translate(0 -66.275)" fill="#595a5c"/>
          <path id="Path_36" data-name="Path 36" d="M15.571,74.374h-4.8L9.69,77.18H8.13l4.379-10.76H13.8L18.18,77.18H16.666Zm-4.344-1.165h3.9l-1.956-5.031Z" transform="translate(1.338 -66.275)" fill="#595a5c"/>
          <path id="Path_37" data-name="Path 37" d="M25.3,67.585h-3.68v9.6h-1.5v-9.6H16.44V66.42H25.3Z" transform="translate(2.705 -66.275)" fill="#595a5c"/>
          <path id="Path_38" data-name="Path 38" d="M31.476,74.374h-4.81L25.584,77.18H24l4.379-10.76h1.316l4.39,10.76H32.571Zm-4.355-1.165h3.866l-1.956-5.031Z" transform="translate(3.949 -66.275)" fill="#595a5c"/>
          <path id="Path_39" data-name="Path 39" d="M40.347,72.429H35.526V77.18H34V66.42h7.1v1.165H35.526v3.692h4.821Z" transform="translate(5.594 -66.275)" fill="#ee6f27"/>
          <path id="Path_40" data-name="Path 40" d="M43.22,76.027h5.427v1.165H41.66V66.42h1.56Z" transform="translate(6.854 -66.275)" fill="#ee6f27"/>
          <path id="Path_41" data-name="Path 41" d="M58.226,72.17a5.625,5.625,0,0,1-.64,2.76,4.286,4.286,0,0,1-1.805,1.805,5.823,5.823,0,0,1-2.737.617,5.671,5.671,0,0,1-2.69-.629,4.344,4.344,0,0,1-1.828-1.782,5.5,5.5,0,0,1-.675-2.678v-.769a5.671,5.671,0,0,1,.652-2.748,4.437,4.437,0,0,1,1.852-1.817,6.172,6.172,0,0,1,5.45,0,4.344,4.344,0,0,1,1.817,1.817,5.683,5.683,0,0,1,.641,2.76Zm-1.689-.7a4.251,4.251,0,0,0-.932-2.935,3.7,3.7,0,0,0-5.112,0,4.157,4.157,0,0,0-.955,2.841v.792a4.32,4.32,0,0,0,.932,2.923,3.715,3.715,0,0,0,5.136.058,4.344,4.344,0,0,0,.932-2.876Z" transform="translate(7.873 -66.295)" fill="#ee6f27"/>
          <path id="Path_42" data-name="Path 42" d="M60.8,73.792l.221,1.456.326-1.281,2.329-7.511h1.269l2.224,7.511.233,1.281.245-1.456,1.77-7.36h1.526l-2.783,10.76H66.808l-2.329-7.837-.186-.827-.175.827L61.579,77.18H60.252L57.48,66.42h1.514Z" transform="translate(9.457 -66.275)" fill="#ee6f27"/>
        </g>
      </g>
    </g>
  </g>
</svg>
